<?xml version="1.0" encoding="UTF-8" standalone="no"?>
<!-- Created with Inkscape (http://www.inkscape.org/) -->

<svg
   xmlns:dc="http://purl.org/dc/elements/1.1/"
   xmlns:cc="http://creativecommons.org/ns#"
   xmlns:rdf="http://www.w3.org/1999/02/22-rdf-syntax-ns#"
   xmlns:svg="http://www.w3.org/2000/svg"
   xmlns="http://www.w3.org/2000/svg"
   xmlns:sodipodi="http://sodipodi.sourceforge.net/DTD/sodipodi-0.dtd"
   xmlns:inkscape="http://www.inkscape.org/namespaces/inkscape"
   width="32"
   height="32"
   viewBox="0 0 8.4666665 8.4666669"
   version="1.1"
   id="svg8"
   sodipodi:docname="node_boolean.svg"
   inkscape:version="0.92.4 (5da689c313, 2019-01-14)">
  <defs
     id="defs2" />
  <sodipodi:namedview
     id="base"
     pagecolor="#ffffff"
     bordercolor="#666666"
     borderopacity="1.0"
     inkscape:pageopacity="0.0"
     inkscape:pageshadow="2"
     inkscape:zoom="16"
     inkscape:cx="7.800015"
     inkscape:cy="21.250002"
     inkscape:document-units="px"
     inkscape:current-layer="layer1"
     showgrid="false"
     units="px"
     inkscape:showpageshadow="false"
     inkscape:window-width="1920"
     inkscape:window-height="1016"
     inkscape:window-x="0"
     inkscape:window-y="27"
     inkscape:window-maximized="1"
     inkscape:pagecheckerboard="true" />
  <metadata
     id="metadata5">
    <rdf:RDF>
      <cc:Work
         rdf:about="">
        <dc:format>image/svg+xml</dc:format>
        <dc:type
           rdf:resource="http://purl.org/dc/dcmitype/StillImage" />
        <dc:title></dc:title>
      </cc:Work>
    </rdf:RDF>
  </metadata>
  <g
     inkscape:label="Ebene 1"
     inkscape:groupmode="layer"
     id="layer1"
     transform="translate(0,-288.53332)">
    <g
       aria-label="01"
       style="font-style:normal;font-variant:normal;font-weight:normal;font-stretch:normal;font-size:10.58333302px;line-height:1.25;font-family:Purisa;-inkscape-font-specification:Purisa;letter-spacing:0px;word-spacing:0px;fill:#000000;fill-opacity:1;stroke:none;stroke-width:0.26458332"
       id="text1607">
      <path
         d="m 2.7929857,294.36705 c 0.5877278,0 0.9877779,-0.57785 0.9877779,-1.6002 0,-1.02235 -0.4000501,-1.6002 -0.9877779,-1.6002 -0.5877277,0 -0.9877778,0.57785 -0.9877778,1.6002 0,1.02235 0.4000501,1.6002 0.9877778,1.6002 z m 0,-2.85468 c 0.3556001,0 0.582789,0.42474 0.582789,1.25448 0,0.82973 -0.2271889,1.25941 -0.582789,1.25941 -0.3556,0 -0.5877277,-0.42968 -0.5877277,-1.25941 0,-0.82974 0.2321277,-1.25448 0.5877277,-1.25448 z"
         style="font-style:normal;font-variant:normal;font-weight:normal;font-stretch:normal;font-size:4.93888903px;font-family:'Courier 10 Pitch';-inkscape-font-specification:'Courier 10 Pitch';fill:#ffffff;fill-opacity:1;stroke-width:0.26458332"
         id="path4539" />
      <path
         d="m 5.1861862,291.70005 0.4543778,-0.10866 v 2.35585 h -0.40005 c -0.2271889,0 -0.3309056,0.01 -0.3309056,0.16792 0,0.1136 0.064206,0.17286 0.1926167,0.17286 h 1.4421556 c 0.1284111,0 0.1926167,-0.0593 0.1926167,-0.17286 0,-0.15804 -0.1037167,-0.16792 -0.3309056,-0.16792 H 6.0208585 v -2.60773 c 0,-0.0988 -0.039511,-0.15805 -0.098778,-0.15805 -0.029633,0 -0.064206,0.005 -0.1037167,0.0148 l -0.7161389,0.19262 c -0.1037166,0.0296 -0.1580444,0.0889 -0.1580444,0.16792 0,0.0889 0.064205,0.1531 0.1679222,0.1531 0.024694,0 0.049389,-0.005 0.074083,-0.01 z"
         style="font-style:normal;font-variant:normal;font-weight:normal;font-stretch:normal;font-size:4.93888903px;font-family:'Courier 10 Pitch';-inkscape-font-specification:'Courier 10 Pitch';fill:#ffffff;fill-opacity:1;stroke-width:0.26458332"
         id="path4541" />
    </g>
  </g>
</svg>
