<?xml version="1.0" encoding="UTF-8" standalone="no"?>
<!-- Created with Inkscape (http://www.inkscape.org/) -->

<svg
   xmlns:dc="http://purl.org/dc/elements/1.1/"
   xmlns:cc="http://creativecommons.org/ns#"
   xmlns:rdf="http://www.w3.org/1999/02/22-rdf-syntax-ns#"
   xmlns:svg="http://www.w3.org/2000/svg"
   xmlns="http://www.w3.org/2000/svg"
   xmlns:sodipodi="http://sodipodi.sourceforge.net/DTD/sodipodi-0.dtd"
   xmlns:inkscape="http://www.inkscape.org/namespaces/inkscape"
   width="32"
   height="32"
   viewBox="0 0 8.4666665 8.4666669"
   version="1.1"
   id="svg8"
   sodipodi:docname="node_ocr.svg"
   inkscape:version="0.92.4 (5da689c313, 2019-01-14)">
  <defs
     id="defs2" />
  <sodipodi:namedview
     id="base"
     pagecolor="#ffffff"
     bordercolor="#666666"
     borderopacity="1.0"
     inkscape:pageopacity="0.0"
     inkscape:pageshadow="2"
     inkscape:zoom="44.8"
     inkscape:cx="4.4224463"
     inkscape:cy="14.21764"
     inkscape:document-units="px"
     inkscape:current-layer="layer1"
     showgrid="false"
     units="px"
     inkscape:showpageshadow="false"
     inkscape:pagecheckerboard="true"
     inkscape:window-width="3674"
     inkscape:window-height="2115"
     inkscape:window-x="153"
     inkscape:window-y="-13"
     inkscape:window-maximized="1" />
  <metadata
     id="metadata5">
    <rdf:RDF>
      <cc:Work
         rdf:about="">
        <dc:format>image/svg+xml</dc:format>
        <dc:type
           rdf:resource="http://purl.org/dc/dcmitype/StillImage" />
        <dc:title />
      </cc:Work>
    </rdf:RDF>
  </metadata>
  <g
     inkscape:label="Ebene 1"
     inkscape:groupmode="layer"
     id="layer1"
     transform="translate(0,-288.53332)">
    <path
       style="fill:#ffffff;fill-opacity:1;stroke:none;stroke-width:0.34395832;stroke-linecap:square;stroke-linejoin:miter;stroke-miterlimit:4;stroke-dasharray:none;stroke-opacity:1"
       id="path1440"
       d="m 3.1195698,289.47249 c -0.095623,-0.009 -0.1912531,0.006 -0.2855121,0.0205 -0.1120948,0.0207 -0.2226701,0.0517 -0.3276033,0.0966 -0.024185,0.0101 -0.047784,0.022 -0.071678,0.0331 0.044467,-0.0289 -0.1945729,0.10387 -0.1458508,0.0781 0.05468,-0.0289 0.1059595,-0.0649 0.1630292,-0.0888 0.02606,-0.0113 -0.046275,0.0324 -0.068928,0.0493 -0.059971,0.0448 -0.066508,0.0519 -0.1226363,0.10009 -0.076511,0.0673 -0.1439771,0.14381 -0.2040083,0.22595 -0.038274,0.0523 -0.049916,0.0722 -0.084869,0.12651 -0.052032,0.0874 -0.096648,0.17908 -0.1295375,0.27539 -0.02347,0.0688 -0.02626,0.0858 -0.043793,0.15538 -0.024578,0.11456 -0.040372,0.23226 -0.033814,0.34971 0.0011,0.0197 0.00376,0.0394 0.00563,0.0591 0.011984,0.0928 0.042337,0.18116 0.085906,0.26377 0.00927,0.0176 0.019666,0.0346 0.029498,0.0518 0.03515,0.0562 0.076378,0.10864 0.129783,0.14863 0.031885,0.0239 0.042572,0.0275 0.07773,0.0459 0.079985,0.035 0.1646641,0.0575 0.2500917,0.0743 0.072895,0.0133 0.1468573,0.0151 0.2206211,0.0113 0.058342,-0.005 0.1152774,-0.018 0.1704191,-0.0372 0.049371,-0.0202 0.095385,-0.0477 0.1424887,-0.0725 0.086287,-0.0473 0.1676098,-0.0922 -0.2028519,0.11707 -0.00746,0.004 0.014442,-0.009 0.021386,-0.0142 0.020188,-0.0146 0.038409,-0.0316 0.056807,-0.0483 0.041459,-0.0372 0.084248,-0.0729 0.124593,-0.11141 0.061906,-0.0666 0.1190977,-0.13743 0.1724672,-0.211 0.051137,-0.0757 0.1020311,-0.15147 0.1517706,-0.22804 0.039241,-0.0597 0.067499,-0.12537 0.091034,-0.1925 0.021375,-0.0655 0.035225,-0.13296 0.047368,-0.20063 0.014975,-0.0859 0.02476,-0.1726 0.034614,-0.25919 0.00894,-0.0817 0.011619,-0.16388 0.01318,-0.246 4.957e-4,-0.0645 6.188e-4,-0.12904 4.857e-4,-0.19354 -3.726e-4,-0.0552 -6.42e-4,-0.11054 -9.149e-4,-0.16572 -3.29e-4,-0.0425 -4.558e-4,-0.0849 -6.155e-4,-0.12737 -3.147e-4,-0.0174 1.324e-4,-0.0347 -3.694e-4,-0.0521 -1.323e-4,-0.005 7.221e-4,-0.0191 -0.00366,-0.0233 0.029343,0.10487 -8.684e-4,0.0131 0.2544035,-0.12512 0.00287,-10e-4 -0.00555,0.004 -0.00741,0.006 -0.00289,0.004 -0.00473,0.009 -0.0066,0.0136 -0.00511,0.0127 -0.00689,0.0223 -0.010173,0.0356 -0.013991,0.0716 -0.023995,0.14388 -0.034416,0.21604 -0.015737,0.10551 -0.029688,0.21127 -0.043972,0.31698 -0.015123,0.10663 -0.030312,0.21324 -0.042623,0.32024 -0.012819,0.10437 -0.022583,0.20903 -0.028251,0.31402 -0.00478,0.0921 -0.00538,0.1841 0.00108,0.27606 0.0057,0.0762 0.019148,0.15152 0.036958,0.22579 0.00938,0.0345 0.021318,0.0687 0.039447,0.0996 0.00683,0.0113 0.017084,0.0254 0.024976,0.0365 0.021507,0.0301 0.048124,0.0555 0.075445,0.0801 0.022894,0.0195 0.048085,0.0358 0.074003,0.0509 0.027485,0.0132 0.05022,0.0338 0.075946,0.0498 0.022532,0.0153 0.047488,0.0217 0.074099,0.025 0.027895,0.003 0.055933,0.003 0.083906,0.003 0.022368,-10e-4 0.045175,10e-4 0.067247,-0.003 0.00334,-5.6e-4 0.00677,-8.3e-4 0.010047,-0.001 0.036258,-0.0101 -0.017969,0.003 0.018083,-0.006 0.00978,-0.003 0.019101,-0.003 0.028686,-0.006 0.018598,-0.006 0.035764,-0.0158 0.05382,-0.0233 0.015675,-0.005 0.031504,-0.0113 0.045861,-0.0201 0.010223,-0.004 0.005,-0.003 0.015634,-0.005 0,0 -0.232277,0.18212 -0.232277,0.18212 v 0 c -0.00926,0.005 -0.00456,0.003 -0.014057,0.008 -0.015584,0.006 -0.030992,0.0126 -0.046389,0.0191 -0.018173,0.009 -0.037297,0.0148 -0.056787,0.0192 -0.019853,0.004 -0.039012,0.0101 -0.059385,0.0101 -0.022817,-9e-5 -0.045633,7e-5 -0.068449,-1.5e-4 -0.02891,-5.7e-4 -0.058,-10e-4 -0.086507,-0.006 -0.029116,-0.006 -0.056428,-0.0176 -0.081021,-0.0348 -0.024272,-0.0172 -0.048116,-0.0352 -0.074776,-0.0488 -0.027118,-0.0166 -0.05335,-0.0347 -0.076904,-0.0562 -0.028278,-0.0265 -0.055436,-0.0542 -0.077643,-0.0861 -0.031651,-0.0464 -0.0548,-0.0917 -0.067836,-0.14688 -0.017108,-0.0762 -0.029784,-0.15326 -0.036495,-0.23108 -0.00707,-0.0933 -0.00687,-0.18674 -9.688e-4,-0.28017 0.00563,-0.10551 0.014264,-0.2109 0.027768,-0.31576 0.01264,-0.10713 0.02644,-0.21413 0.042502,-0.32084 0.014785,-0.10538 0.027917,-0.21086 0.042291,-0.31622 0.00968,-0.0716 0.017964,-0.14327 0.028063,-0.21476 0.00292,-0.0189 0.00718,-0.0368 0.011481,-0.0555 0.00109,-0.005 -0.00116,-0.0113 0.00297,-0.0142 0.2591397,-0.15987 0.1923861,-0.22069 0.2741133,-0.13591 0.00176,0.004 0.00401,0.006 0.00528,0.0101 0.00884,0.0254 9.982e-4,0.0539 0.00342,0.0801 -1.594e-4,0.0426 -2.829e-4,0.0853 -5.657e-4,0.12796 -2.102e-4,0.0555 -3.659e-4,0.11091 -5.655e-4,0.16644 6e-6,0.0649 5.323e-4,0.1297 -0.00103,0.19454 -0.00186,0.0834 -0.00622,0.1666 -0.01463,0.24956 -0.00913,0.0866 -0.018226,0.17342 -0.031311,0.25954 -0.011355,0.0688 -0.024887,0.13727 -0.044597,0.20422 -0.022455,0.0698 -0.051522,0.13747 -0.090098,0.19991 -0.049583,0.0777 -0.1029654,0.15298 -0.1534247,0.23013 -0.051304,0.0745 -0.1082293,0.14443 -0.1665175,0.21348 -0.00733,0.008 -0.014296,0.0163 -0.021997,0.024 -0.00822,0.008 -0.033345,0.0293 -0.042371,0.0372 -0.019263,0.017 -0.037987,0.0347 -0.057873,0.0511 -0.018686,0.017 -0.036736,0.0347 -0.055975,0.0511 -0.00668,0.006 -0.012849,0.0126 -0.020373,0.0166 -0.089598,0.0534 -0.1803559,0.10475 -0.2707335,0.15687 -0.00791,0.005 -0.016085,0.009 -0.024126,0.013 -0.047314,0.0255 -0.094495,0.0522 -0.1459244,0.0686 -0.056596,0.0165 -0.1146248,0.0279 -0.1736995,0.0299 -0.074921,0.001 -0.1498976,-0.003 -0.2234568,-0.0176 -0.086796,-0.0194 -0.1731382,-0.0434 -0.2536256,-0.0819 -0.036164,-0.0202 -0.048232,-0.0251 -0.080976,-0.0511 -0.054706,-0.0433 -0.096276,-0.0993 -0.1320224,-0.15864 -0.020894,-0.037 -0.040387,-0.0698 -0.058513,-0.10827 -0.032462,-0.0689 -0.05222,-0.14235 -0.062581,-0.2177 -0.00192,-0.0205 -0.00465,-0.0409 -0.00578,-0.0614 -0.00658,-0.12009 0.00938,-0.24064 0.033821,-0.35793 0.015465,-0.0624 0.022798,-0.0963 0.04243,-0.15787 0.031316,-0.0982 0.07492,-0.19139 0.1263066,-0.28067 0.082115,-0.13006 0.1701613,-0.25748 0.286275,-0.36004 0.058877,-0.0519 0.060022,-0.0548 0.1232638,-0.10299 0.022714,-0.0174 0.044837,-0.0356 0.069071,-0.0507 0.1490367,-0.0931 0.2990315,-0.1866 0.4578054,-0.26254 0.024443,-0.0113 0.048611,-0.0222 0.073329,-0.0323 0.1072132,-0.044 0.2197776,-0.0743 0.3339129,-0.0937 0.098514,-0.0146 0.1976215,-0.027 0.2974595,-0.0221 0,0 -0.2377486,0.17092 -0.2377486,0.17092 z"
       inkscape:connector-curvature="0" />
    <path
       style="fill:#ffffff;fill-opacity:1;stroke:none;stroke-width:0.34395832;stroke-linecap:square;stroke-linejoin:miter;stroke-miterlimit:4;stroke-dasharray:none;stroke-opacity:1"
       id="path1442"
       d="m 4.9672096,289.39456 c 0.057939,3.9e-4 0.115602,0.004 0.1731607,0.0113 0.037892,0.006 0.076175,0.003 0.1142577,0.004 0.020091,9.7e-4 0.040032,0.001 0.060183,0.004 0.063523,-9e-5 0.1269091,-0.005 0.1901621,-0.0113 0.068646,-0.006 0.137479,-0.0101 0.2060713,-0.0165 0.06359,-0.006 0.1275529,-0.008 0.1913213,-0.0126 0.011506,-8e-4 0.023062,-0.001 0.034536,-0.003 0.011431,-10e-4 0.022758,-0.003 0.034085,-0.005 0.011468,-10e-4 0.022911,-0.003 0.034404,-0.004 0.031588,-0.003 0.063032,-0.004 0.094774,-0.004 0.050228,-0.003 0.1003071,0.005 0.1502395,0.0101 0.04649,10e-4 0.093253,0.003 0.1398027,10e-4 0.037589,-5.6e-4 0.075045,-0.004 0.1125965,-0.005 0.030786,-0.003 0.061569,-0.005 0.092336,-0.008 0.024926,-0.003 0.049854,-0.004 0.074792,-0.006 0.023925,-10e-4 0.046993,-0.008 0.070585,-0.0126 0.01905,-0.003 0.038592,-0.008 0.057703,-0.005 0.020667,0.0113 0.031609,0.0294 0.026458,0.0527 -0.012122,0.0263 -0.038946,0.0428 -0.060408,0.0606 -0.034049,0.0287 -0.07011,0.0546 -0.1060802,0.0805 -0.090718,0.0646 -0.1814464,0.12912 -0.2721629,0.19388 -0.00927,0.006 -0.036893,0.026 -0.027707,0.0195 0.071874,-0.0514 0.1437258,-0.10299 0.2157875,-0.15419 0.010399,-0.008 -0.020647,0.0155 -0.030894,0.0228 -0.032417,0.0244 -0.033847,0.0262 -0.065968,0.0522 -0.08364,0.0714 -0.1665462,0.14393 -0.2475163,0.21863 -0.1283278,0.12449 -0.2598369,0.24546 -0.3900929,0.36783 -0.127721,0.12059 -0.2515717,0.24546 -0.3705813,0.37519 -0.090155,0.10022 -0.1761728,0.20417 -0.2647413,0.30583 -0.055263,0.0641 -0.1117854,0.12722 -0.164542,0.19354 -0.03481,0.046 -0.065051,0.0955 -0.095454,0.14463 -0.022954,0.0367 -0.047792,0.072 -0.072488,0.10739 -0.00997,0.0136 -0.019115,0.0274 -0.029488,0.0405 -0.00101,10e-4 -0.00187,0.004 -0.0034,0.003 -0.00235,-0.001 -0.00269,-0.004 -0.00409,-0.006 -0.00204,-0.005 -0.00594,-0.0113 -0.00621,-0.0165 -1.909e-4,-0.004 0.00332,-0.006 0.00506,-0.0101 -0.078747,0.0558 -0.1572224,0.11217 -0.2362379,0.16766 -0.00568,0.004 0.01089,-0.0101 0.016302,-0.0137 0.019389,-0.016 0.016025,-0.0137 0.035135,-0.0302 0.034195,-0.0302 0.061872,-0.0668 0.094036,-0.0991 0.1022864,-0.0863 0.035323,-0.0306 0.2881792,-0.20942 0.00782,-0.006 0.016523,-0.0101 0.024878,-0.0143 0.026264,-0.0145 0.052538,-0.027 0.080467,-0.0381 0.049189,-0.0179 0.09958,-0.0306 0.1510339,-0.0389 0.044022,-0.006 0.088767,-0.008 0.1331991,-0.006 0.049448,10e-4 0.095906,0.0154 0.1405874,0.0358 0.042103,0.0221 0.077579,0.0547 0.1173133,0.0804 0.038234,0.0244 0.076318,0.0492 0.114513,0.0738 0.041865,0.0257 0.086414,0.0457 0.132332,0.0621 0.0085,0.003 0.017132,0.006 0.025517,0.0101 0.025419,0.0113 0.022666,0.0126 0.047932,0.0216 0.021835,0.008 0.044797,0.0137 0.067352,0.0194 0.046616,0.0136 0.094274,0.02 0.1421319,0.0262 0.037022,0.004 0.075113,0.006 0.111544,-0.003 0.00728,-10e-4 0.014235,-0.005 0.02141,-0.006 0.035529,-0.0153 0.071199,-0.0313 0.1046731,-0.0513 0.1066674,-0.0509 0.2686653,-0.18048 -0.1615952,0.12602 0.021251,-0.0141 0.039478,-0.0318 0.05716,-0.0502 0,0 0.273059,-0.14274 0.273059,-0.14274 v 0 c -0.017748,0.019 -0.034254,0.0391 -0.054473,0.0553 -0.1408921,0.10048 -0.2093671,0.16329 -0.3375141,0.22734 -0.034977,0.0177 -0.071006,0.0342 -0.1087549,0.0446 -0.046633,0.008 -0.09345,0.008 -0.1403082,10e-4 -0.048719,-0.006 -0.097039,-0.0162 -0.1445635,-0.0292 -0.023621,-0.006 -0.046986,-0.0137 -0.069769,-0.0233 -0.00394,-10e-4 -0.042956,-0.0195 -0.046923,-0.0211 -0.0084,-0.003 -0.016997,-0.006 -0.025493,-0.0101 -0.047349,-0.0184 -0.093685,-0.0395 -0.1369041,-0.0669 -0.038323,-0.0247 -0.076664,-0.0494 -0.1149443,-0.0742 -0.037537,-0.0262 -0.072224,-0.057 -0.1139533,-0.0761 -0.042643,-0.0175 -0.086574,-0.0278 -0.1328162,-0.0264 -0.043452,10e-4 -0.087044,0.003 -0.1298794,0.0113 -0.049511,0.0101 -0.098357,0.0231 -0.145077,0.0428 -0.026606,0.0136 -0.052552,0.0259 -0.077552,0.0419 -0.00815,0.005 -0.031785,0.0218 -0.023986,0.0161 0.1042581,-0.0757 0.3103706,-0.22309 0.2041935,-0.14707 -0.00591,0.004 -0.012097,0.0101 -0.017739,0.0138 -0.028255,0.0255 -0.048285,0.0591 -0.076604,0.0847 -0.015807,0.015 -0.031611,0.0316 -0.049298,0.0444 -0.087228,0.0635 -0.1736778,0.12804 -0.262461,0.18913 -0.00401,0.003 -0.00997,0.004 -0.014479,10e-4 -0.00713,-0.004 -0.01182,-0.0101 -0.017769,-0.0151 -0.00244,-0.005 -0.00587,-0.0101 -0.00717,-0.0137 -0.00451,-0.0169 0.022011,-0.0416 0.03,-0.0541 0.025966,-0.035 0.05065,-0.0709 0.075777,-0.10651 0.03062,-0.0502 0.061374,-0.10023 0.095124,-0.14825 0.052308,-0.0694 0.1124771,-0.13222 0.1690038,-0.19812 0.090234,-0.10185 0.177996,-0.20612 0.268025,-0.30827 0.120325,-0.13102 0.2456339,-0.2571 0.3742762,-0.37957 0.058927,-0.0556 0.081528,-0.0772 0.1405873,-0.1321 0.048675,-0.0453 0.083825,-0.077 0.1313547,-0.12286 0.019621,-0.019 0.038641,-0.0387 0.058165,-0.0578 0.017742,-0.0175 0.035759,-0.0345 0.053644,-0.0517 0.07874,-0.0746 0.1600311,-0.14622 0.2415346,-0.21762 0.1173863,-0.0993 0.2430543,-0.18285 0.3686638,-0.27281 0.064084,-0.0459 0.3388799,-0.22571 -0.1917408,0.13851 0.035238,-0.0254 0.070888,-0.0507 0.1048165,-0.078 0.02083,-0.0166 0.040252,-0.0352 0.063373,-0.0484 0.00158,-10e-4 0.00293,-0.003 0.00474,-0.003 0.00456,-0.001 0.014958,0.003 0.00482,0.005 -0.01736,0.004 -0.035437,0.004 -0.052813,0.008 -0.024027,0.005 -0.048101,0.008 -0.07251,0.0113 -0.024747,0.003 -0.049506,0.004 -0.07426,0.006 -0.030762,0.003 -0.061502,0.005 -0.092297,0.008 -0.037433,0.003 -0.074925,0.004 -0.1124758,0.003 -0.047325,5e-5 -0.094847,1.2e-4 -0.1419889,-0.004 -0.048845,-0.005 -0.097743,-0.0101 -0.1468634,-0.006 -0.023701,7.1e-4 -0.035435,3.7e-4 -0.059303,0.003 -0.045726,0.004 -0.091018,0.0126 -0.136844,0.0146 -0.06365,0.004 -0.1274083,0.006 -0.1908623,0.014 -0.068621,0.005 -0.1375048,0.008 -0.2060233,0.0151 -0.064351,0.005 -0.1289217,0.0113 -0.1935605,0.008 -0.058539,-0.003 -0.1173473,-0.001 -0.1755766,-0.0101 -0.058023,-0.005 -0.1161854,-0.008 -0.1745278,-0.006 0,0 0.2346118,-0.20361 0.2346118,-0.20361 z"
       inkscape:connector-curvature="0" />
    <text
       xml:space="preserve"
       style="font-style:normal;font-weight:normal;font-size:3.14126778px;line-height:1.25;font-family:sans-serif;letter-spacing:0px;word-spacing:0px;fill:#fffffb;fill-opacity:1;stroke:none;stroke-width:0.26458332;stroke-opacity:1"
       x="1.9818407"
       y="295.77145"
       id="text1446"><tspan
         sodipodi:role="line"
         id="tspan1444"
         x="1.9818407"
         y="295.77145"
         style="font-size:3.92658472px;fill:#fffffb;fill-opacity:1;stroke:none;stroke-width:0.26458332;stroke-opacity:1">az</tspan></text>
    <path
       sodipodi:type="star"
       style="fill:#fffffb;fill-opacity:1;stroke:#ffffff;stroke-width:0.09921955;stroke-linecap:square;stroke-linejoin:miter;stroke-miterlimit:4;stroke-dasharray:none;stroke-opacity:1"
       id="path1451"
       sodipodi:sides="3"
       sodipodi:cx="2.7435579"
       sodipodi:cy="294.87979"
       sodipodi:r1="0.21979073"
       sodipodi:r2="0.10989536"
       sodipodi:arg1="2.0943951"
       sodipodi:arg2="3.1415927"
       inkscape:flatsided="false"
       inkscape:rounded="0"
       inkscape:randomized="0"
       d="m 2.6336626,295.07014 0,-0.19035 0,-0.19034 0.164843,0.0952 0.1648431,0.0952 -0.1648431,0.0952 z"
       inkscape:transform-center-x="1.7677192e-05"
       transform="matrix(0,1.8016606,-3.9469124,0,1168.0696,287.63938)"
       inkscape:transform-center-y="0.09899093" />
  </g>
</svg>
